<svg xmlns="http://www.w3.org/2000/svg" width="89.371" height="38.595" fill="none"><path fill="#f1faee" d="M11.76 26.808H2.018V10.13c0-.407-.219-.65-.585-.65H.598c-.352 0-.598.268-.598.65v18.014c0 .388.218.61.598.61H11.76c.397 0 .664-.25.664-.622v-.742c0-.365-.248-.583-.664-.583zM25.494 13.2c-1.29-.801-2.756-1.208-4.355-1.21h-.006c-1.534 0-2.979.392-4.294 1.163a8.732 8.732 0 0 0-3.146 3.138 8.36 8.36 0 0 0-1.169 4.293c0 1.528.4 2.956 1.192 4.245a8.82 8.82 0 0 0 3.18 3.113 8.327 8.327 0 0 0 4.272 1.154h.006c2.172 0 3.943-.691 5.742-2.242a.636.636 0 0 0 .228-.48.556.556 0 0 0-.14-.395l-.363-.492-.02-.023a.503.503 0 0 0-.366-.165.706.706 0 0 0-.458.164c-.517.424-.948.749-1.283.967-.48.323-1.557.863-3.37.863h-.005l-.109.001c-3.28 0-6.278-2.758-6.555-6.006l14.18.01c.599 0 .928-.311.929-.875 0-1.405-.363-2.777-1.083-4.08a8.588 8.588 0 0 0-3.007-3.143zm2.19 6.214-13.137-.007c.531-3.116 3.482-5.675 6.554-5.614h.111c3.482 0 5.891 2.838 6.473 5.621zM40.896 29.086c1.533 0 2.97-.387 4.273-1.151a8.545 8.545 0 0 0 3.117-3.114 8.326 8.326 0 0 0 1.153-4.28 8.304 8.304 0 0 0-1.153-4.268 8.548 8.548 0 0 0-3.117-3.113 8.328 8.328 0 0 0-4.273-1.152c-2.658 0-5.136 1.27-6.513 3.29v-2.521a.655.655 0 0 0-.11-.388c-.102-.143-.272-.223-.501-.223h-.715c-.389 0-.612.223-.612.61V33.12c0 .335.21.544.545.544h.9c.247 0 .44-.187.44-.425v-7.502a8.115 8.115 0 0 0 6.566 3.35zm-4.655-3.76c-1.32-1.32-2.055-3.071-2.017-4.816-.037-1.697.68-3.407 1.967-4.692 1.298-1.296 3.023-2.018 4.745-1.981 1.168 0 2.27.306 3.271.91a6.913 6.913 0 0 1 2.394 2.467 6.78 6.78 0 0 1 .874 3.33c.038 1.727-.694 3.47-2.008 4.782-1.274 1.272-2.955 1.973-4.615 1.945-1.655.034-3.338-.674-4.61-1.946zM51.022 14.062h2.024v11.227c0 1.821 1.221 3.24 2.964 3.451.183.028.491.042.944.042.537 0 .81-.094.81-.61v-.635c0-.478-.357-.544-.738-.544l-.478-.013c-.538-.012-.933-.204-1.174-.571a2.409 2.409 0 0 1-.391-1.345V14.062h2.7c.35 0 .61-.364.61-.69v-.516c0-.374-.223-.597-.597-.597h-2.713V8.796c0-.39-.213-.664-.518-.664-.05 0-.11 0-.171.024l-.709.183c-.324.099-.54.248-.54.655v3.265h-2.023c-.38 0-.625.24-.625.61v.503c0 .38.28.69.625.69zM87.724 20.973c-1.083-.78-2.368-1.343-3.822-1.673-1.74-.374-3.596-1.393-3.562-2.754 0-2.01 1.775-2.722 3.295-2.722 1.433 0 2.733.802 3.477 2.14.18.344.395.518.641.518.088 0 .19-.03.265-.075l.59-.308a.496.496 0 0 0 .246-.452.76.76 0 0 0-.07-.345c-.973-2.204-2.7-3.32-5.136-3.32-3.137 0-5.245 1.85-5.245 4.604 0 1.152.493 2.13 1.464 2.906.922.748 2.116 1.3 3.55 1.64 1.226.29 2.225.686 2.968 1.176.378.25.652.549.83.9.162.32.245.682.245 1.095.02.638-.212 1.207-.687 1.694-.841.86-2.248 1.247-3.215 1.247h-.029c-.916 0-1.735-.225-2.435-.67-.693-.44-1.133-1.017-1.345-1.765-.086-.293-.2-.58-.576-.58a.84.84 0 0 0-.11.012l-.135.02-.503.119-.028.009c-.275.109-.431.316-.431.569 0 .061.016.176.058.296.527 2.292 2.74 3.832 5.503 3.832l.1.001c1.764 0 3.39-.62 4.473-1.708.853-.857 1.293-1.933 1.27-3.109 0-.753-.165-1.419-.483-1.998a3.9 3.9 0 0 0-1.163-1.299z"/><path fill="#ef3939" d="M79.643 4.8a4.796 4.796 0 0 0-2.2-4.027A4.778 4.778 0 0 0 74.838 0a4.81 4.81 0 0 0-4.807 4.8c0 1.274.502 2.43 1.315 3.29A14.348 14.348 0 0 0 69 12.022a8.622 8.622 0 0 0-1.301-.098c-4.739 0-8.594 3.85-8.594 8.583 0 3.923 2.65 7.238 6.255 8.258-1.812 4.634-6.327 7.927-11.601 7.927-4.499 0-8.448-2.396-10.636-5.976-.663.145-1.349.227-2.052.24 2.413 4.54 7.194 7.64 12.688 7.64 6.223 0 11.531-3.976 13.52-9.516.139.006.279.01.42.01 4.738 0 8.593-3.85 8.593-8.583 0-3.622-2.259-6.725-5.442-7.983a12.453 12.453 0 0 1 2.057-3.33c.267.118.547.21.837.278.352.082.717.13 1.093.13A4.81 4.81 0 0 0 79.643 4.8zM67.7 27.188c-3.688 0-6.688-2.997-6.688-6.68s3-6.68 6.688-6.68c3.687 0 6.688 2.997 6.688 6.68s-3 6.68-6.688 6.68zm7.138-25.284c.172 0 .34.018.505.047a2.901 2.901 0 0 1 2.396 2.85 2.902 2.902 0 0 1-2.901 2.898c-1.6 0-2.901-1.3-2.901-2.897a2.903 2.903 0 0 1 2.9-2.897z"/></svg>