<svg xmlns="http://www.w3.org/2000/svg" xml:space="preserve" id="Layer_1" x="0" y="0" style="enable-background:new 0 0 116 116" version="1.1" viewBox="0 0 116 116"><style>.st0{fill:#18123a}.st1{fill:#ef3b39}</style><path d="M29.1 108.3c9.6-4.6 17.2-12.6 21-22.6-12.1-3.4-21-14.5-21-27.7 0-15.9 12.9-28.8 28.8-28.8 1.5 0 2.9.1 4.4.3 1.9-4.8 4.6-9.3 7.9-13.2-2.7-2.9-4.4-6.8-4.4-11 0-1.6.2-3.2.7-4.7C63.7.2 60.9 0 58 0 26 0 0 26 0 58c0 21.5 11.7 40.3 29.1 50.3z" class="st0"/><path d="M81.9 15c3.7 0 6.9-2.1 8.5-5.1-5.3-3.6-11.3-6.3-17.6-8-.4 1.1-.6 2.2-.6 3.4 0 5.3 4.4 9.7 9.7 9.7z" class="st1"/><path d="M95.6 13.8c-2.9 4.5-7.9 7.6-13.6 7.6-1.3 0-2.5-.2-3.7-.4-1-.2-1.9-.5-2.8-.9-2.8 3.3-5.2 7.1-6.9 11.2C79.2 35.4 86.8 45.8 86.8 58c0 15.9-12.9 28.8-28.8 28.8h-1.4c-3.8 10.5-11 19.3-20.4 25 6.7 2.7 14.1 4.3 21.8 4.3 32 0 58-26 58-58 0-17.8-7.9-33.6-20.4-44.3z" class="st0"/><circle cx="58" cy="58" r="22.4" class="st1"/><path d="M78.3 21c1.2.3 2.4.4 3.7.4 5.7 0 10.8-3 13.6-7.6-1.6-1.4-3.3-2.7-5.1-3.9-1.7 3-4.9 5.1-8.5 5.1-5.4 0-9.7-4.4-9.7-9.7 0-1.2.2-2.3.6-3.4-2.1-.5-4.2-1-6.3-1.3-.4 1.5-.7 3-.7 4.7 0 4.3 1.7 8.2 4.4 11-3.3 3.9-5.9 8.4-7.9 13.2-1.4-.2-2.9-.3-4.4-.3-15.9 0-28.8 12.9-28.8 28.8 0 13.2 8.9 24.3 21 27.7-3.9 9.9-11.5 18-21 22.6 2.3 1.3 4.6 2.5 7.1 3.4 9.4-5.7 16.7-14.5 20.4-25h1.4c15.9 0 28.8-12.9 28.8-28.8 0-12.2-7.6-22.6-18.2-26.8 1.7-4.1 4-7.9 6.9-11.2.8.5 1.7.8 2.7 1.1zm2.1 37c0 12.4-10.1 22.4-22.4 22.4-12.4 0-22.4-10.1-22.4-22.4 0-12.4 10.1-22.4 22.4-22.4 12.4 0 22.4 10 22.4 22.4z" style="fill:#fff"/></svg>