<svg xmlns="http://www.w3.org/2000/svg" fill="#F2F8FA" class="w-6 h-6" viewBox="0 0 24 24"><path d="M12 2.25a.75.75 0 0 1 .75.75v2.25a.75.75 0 0 1-1.5 0V3a.75.75 0 0 1 .75-.75zM7.5 12a4.5 4.5 0 1 1 9 0 4.5 4.5 0 0 1-9 0zm11.394-5.834a.75.75 0 0 0-1.06-1.06l-1.591 1.59a.75.75 0 1 0 1.06 1.061l1.591-1.59zM21.75 12a.75.75 0 0 1-.75.75h-2.25a.75.75 0 0 1 0-1.5H21a.75.75 0 0 1 .75.75zm-3.916 6.894a.75.75 0 0 0 1.06-1.06l-1.59-1.591a.75.75 0 1 0-1.061 1.06l1.59 1.591zM12 18a.75.75 0 0 1 .75.75V21a.75.75 0 0 1-1.5 0v-2.25A.75.75 0 0 1 12 18zm-4.242-.697a.75.75 0 0 0-1.061-1.06l-1.591 1.59a.75.75 0 0 0 1.06 1.061l1.591-1.59zM6 12a.75.75 0 0 1-.75.75H3a.75.75 0 0 1 0-1.5h2.25A.75.75 0 0 1 6 12zm.697-4.243a.75.75 0 0 0 1.06-1.06l-1.59-1.591a.75.75 0 0 0-1.061 1.06l1.59 1.591z"/></svg>