<?xml version="1.0" encoding="UTF-8"?>
<!--Generator: Apple Native CoreSVG 326-->
<!DOCTYPE svg
PUBLIC "-//W3C//DTD SVG 1.1//EN"
       "http://www.w3.org/Graphics/SVG/1.1/DTD/svg11.dtd">
<svg version="1.1" xmlns="http://www.w3.org/2000/svg" xmlns:xlink="http://www.w3.org/1999/xlink" viewBox="0 0 4.24561 3.89404">
 <g>
  <rect height="3.89404" opacity="0" width="4.24561" x="0" y="0"/>
  <path d="M3.00293 2.62695C1.95557 2.62695 1.30127 1.98975 1.30127 0.939941C1.30127 0.715332 1.35742 0.390625 1.42334 0.236816C1.44287 0.187988 1.44531 0.15625 1.44531 0.136719C1.44531 0.0854492 1.40625 0.0219727 1.32568 0.0219727C1.30127 0.0219727 1.25 0.0268555 1.20117 0.0463867C0.480957 0.32959 0 1.09375 0 1.87988C0 2.99072 0.90332 3.89404 2.01416 3.89404C2.854 3.89404 3.55713 3.38623 3.79883 2.75879C3.81592 2.70752 3.8208 2.65381 3.8208 2.63428C3.8208 2.55859 3.75732 2.50977 3.70361 2.50977C3.67432 2.50977 3.6499 2.51465 3.6084 2.5293C3.45947 2.57812 3.23242 2.62695 3.00293 2.62695Z" fill="#bf5af2"/>
 </g>
</svg>
