<svg xmlns="http://www.w3.org/2000/svg" width="742.753" height="742.753" viewBox="0 0 196.52 196.52"><path fill="#000000" d="M47.924 72.797a18.23 18.23 0 0 1-7.796 7.76l42.799 42.965 10.318-5.23zm56.453 56.67-10.319 5.23 21.686 21.77a18.23 18.23 0 0 1 7.798-7.76z"/><path fill="#000000" d="m129.665 102.077 1.786 11.427 27.415-13.895a18.23 18.23 0 0 1-4.972-9.812zm-14.066 7.128-57.29 29.034a18.23 18.23 0 0 1 4.973 9.813l54.103-27.42z"/><path fill="#000000" d="m69.531 91.654 8.162 8.193 29.269-57.139a18.23 18.23 0 0 1-9.787-5.021zm-7.19 14.036L48.34 133.025a18.23 18.23 0 0 1 9.786 5.022l12.378-24.164z"/><path fill="#000000" d="M39.89 80.676a18.23 18.23 0 0 1-10.865 1.72l8.176 52.298a18.23 18.23 0 0 1 10.865-1.72z"/><path fill="#000000" d="M63.326 148.31a18.23 18.23 0 0 1-1.732 10.864l52.289 8.39a18.23 18.23 0 0 1 1.732-10.862z"/><path fill="#000000" d="M134.915 146.918a18.23 18.23 0 0 1 9.788 5.023l24.134-47.117a18.23 18.23 0 0 1-9.787-5.023z"/><path fill="#000000" d="M126.133 33.16a18.23 18.23 0 0 1-7.798 7.761l37.377 37.52a18.23 18.23 0 0 1 7.797-7.76z"/><path fill="#000000" d="M44.77 51.628a18.23 18.23 0 0 1 4.973 9.812L96.99 37.495a18.23 18.23 0 0 1-4.971-9.811z"/><path fill="#000000" d="M118.25 40.965a18.23 18.23 0 0 1-10.852 1.812l4.185 26.8 11.42 1.832zm-4.234 44.192 9.895 63.363a18.23 18.23 0 0 1 10.88-1.627l-9.355-59.904z"/><path fill="#000000" d="M49.776 61.641a18.23 18.23 0 0 1-1.694 10.869l26.82 4.307 5.272-10.294zm45.968 7.382L90.472 79.32l63.371 10.177a18.23 18.23 0 0 1 1.76-10.859z"/><path fill="#000000" d="M93.439 23.842a1 1 0 1 0 33.092 1.802 1 1 0 1 0-33.092-1.802"/><path fill="#000000" d="M155.314 85.957a1 1 0 1 0 33.092 1.803 1 1 0 1 0-33.092-1.803"/><path fill="#000000" d="M115.347 163.982a1 1 0 1 0 33.092 1.803 1 1 0 1 0-33.092-1.803"/><path fill="#000000" d="M28.77 150.09a1 1 0 1 0 33.092 1.802 1 1 0 1 0-33.092-1.802"/><path fill="#000000" d="M15.23 63.478a1 1 0 1 0 33.092 1.803 1 1 0 1 0-33.092-1.803"/></svg>