<?xml version="1.0" encoding="utf-8"?>
<!-- Generator: Adobe Illustrator 27.0.0, SVG Export Plug-In . SVG Version: 6.00 Build 0)  -->
<svg version="1.1" id="Layer_1" xmlns="http://www.w3.org/2000/svg" xmlns:xlink="http://www.w3.org/1999/xlink" x="0px" y="0px"
	 viewBox="0 0 57.1 63.8" style="enable-background:new 0 0 57.1 63.8;" xml:space="preserve">
<g>
	<path d="M53.8,7.1c0.7,0.1,1,0.7,1,1.7v21.4c0,0.3-0.1,0.6-0.2,0.9c-0.2,0.3-0.4,0.5-0.7,0.7C53.6,32,53.3,32,53,32h-0.7
		c-0.2,0-0.5-0.1-0.7-0.2c-0.3-0.2-0.5-0.4-0.7-0.7c-0.2-0.3-0.2-0.6-0.2-0.9V8.8c0-1.1,0.3-1.7,1-1.7V4.3L42.2,12
		c0.1,0.1,0.2,0.2,0.2,0.3l0.2,0.2c0.9,1.6,1.3,3.4,1.3,5.6c0,1.7-0.3,3.2-0.9,4.6c-0.6,1.4-1.3,2.5-2.1,3.3
		c-0.8,0.8-1.6,1.6-2.4,2.3c-0.8,0.7-1.6,1.5-2.2,2.2c-0.6,0.8-0.9,1.6-0.9,2.3c0,0.8,0.4,1.6,1.2,2.4c0.8,0.8,1.7,1.7,2.8,2.6
		c1,0.8,2,1.7,3.2,2.7c1.1,0.9,2,2.1,2.7,3.7c0.7,1.6,1.1,3.2,1.1,5c0,2.4-0.6,4.6-1.8,6.6c-1.2,1.9-2.8,3.5-4.8,4.6s-4.1,2-6.3,2.6
		c-2.2,0.6-4.4,0.8-6.6,0.8c-1.4,0-2.9-0.1-4.3-0.3c-1.4-0.2-2.9-0.6-4.3-1.2c-1.4-0.6-2.7-1.2-3.8-2.1c-1.1-0.8-2-1.9-2.7-3.2
		c-0.7-1.3-1.1-2.7-1.1-4.4c0-1.9,0.5-3.6,1.6-5.2c1.1-1.6,2.5-3,4.2-4.1c3.1-1.9,7.9-3,14.3-3.5c-1.4-1.9-2.2-3.7-2.2-5.3
		c0-0.9,0.2-1.9,0.7-3c-0.8,0.1-1.6,0.2-2.3,0.2c-3.5,0-6.5-1.1-8.9-3.4c-2.4-2.3-3.6-5.2-3.6-8.7c0-0.3,0-0.7,0-1H0L21.6,0h35.5
		l-3.3,2.5V7.1z M37.2,45c-0.7-0.6-1.1-0.9-1.2-1c-0.2-0.1-0.6-0.4-1.4-1c-0.8-0.6-1.2-0.9-1.3-1c-0.4-0.1-1-0.2-1.7-0.2
		c-1.7,0-3.3,0.2-4.8,0.5c-1.6,0.3-3.1,0.8-4.6,1.4c-1.5,0.6-2.7,1.6-3.7,2.8c-0.9,1.3-1.4,2.8-1.4,4.6c0,1.6,0.4,3,1.2,4.2
		c0.8,1.3,1.9,2.3,3.2,3c1.3,0.7,2.7,1.2,4.2,1.6c1.5,0.4,3,0.7,4.5,0.7c3.1,0,5.7-0.7,7.9-2.1c2.2-1.4,3.2-3.5,3.2-6.4
		c0-0.6-0.1-1.1-0.2-1.7c-0.2-0.6-0.3-1.1-0.5-1.5c-0.2-0.4-0.5-0.9-0.9-1.5c-0.4-0.4-0.8-0.8-1.2-1.2C38.3,46,37.9,45.5,37.2,45z
		 M35.4,27.3c1.2-1.5,1.8-3.3,1.8-5.6c0-1.9-0.3-3.9-1-6c-0.7-2.1-1.7-4-3.2-5.6s-3.2-2.5-5.2-2.5c-2.2,0-3.9,0.8-5.1,2.4
		c-1.2,1.6-1.7,3.5-1.7,5.7c0,2,0.3,4,0.9,6c0.6,2,1.7,3.8,3.2,5.4c1.5,1.6,3.2,2.4,5.2,2.4C32.4,29.6,34.1,28.8,35.4,27.3z"/>
</g>
</svg>
