<?xml version="1.0" encoding="utf-8"?>
<!-- Generator: Adobe Illustrator 27.0.0, SVG Export Plug-In . SVG Version: 6.00 Build 0)  -->
<svg version="1.1" id="Layer_1" xmlns="http://www.w3.org/2000/svg" xmlns:xlink="http://www.w3.org/1999/xlink" x="0px" y="0px"
	 viewBox="0 0 256 256" style="enable-background:new 0 0 256 256;" xml:space="preserve">
<style type="text/css">
	.st0{fill:#FFFFFF;}
</style>
<path d="M256,128c0,70.7-57.3,128-128,128S0,198.7,0,128S57.3,0,128,0S256,57.3,256,128z"/>
<g>
	<path class="st0" d="M86.3,186.2H70.9V79.1h15.4v48.4V186.2z"/>
	<path class="st0" d="M108.9,79.1h41.6c39.6,0,57,28.3,57,53.6c0,27.5-21.5,53.6-56.8,53.6h-41.8C108.9,186.3,108.9,79.1,108.9,79.1
		z M124.3,172.4h24.5c34.9,0,42.9-26.5,42.9-39.7C191.7,111.2,178,93,148,93h-23.7L124.3,172.4L124.3,172.4z"/>
	<path class="st0" d="M88.7,56.8c0,5.5-4.5,10.1-10.1,10.1s-10.1-4.6-10.1-10.1c0-5.6,4.5-10.1,10.1-10.1
		C84.2,46.7,88.7,51.3,88.7,56.8z"/>
</g>
</svg>
