<?xml version="1.0" encoding="utf-8"?><!-- Uploaded to: SVG Repo, www.svgrepo.com, Generator: SVG Repo Mixer Tools -->
<svg width="800px" height="800px" viewBox="0 0 1024 1024" xmlns="http://www.w3.org/2000/svg">
   <circle cx="512" cy="512" r="512" style="fill:#a6ce39"/>
   <path d="M373.7 709.3h-50.4V358.5h50.4v350.8zm74-350.8h136.2c129.7 0 186.7 92.7 186.7 175.5 0 90.1-70.4 175.5-186 175.5H447.7v-351zm50.4 305.6h80.2c114.3 0 140.5-86.8 140.5-130 0-70.4-44.9-130-143.1-130h-77.6v260zM381.6 285.5c0 18-14.7 33.1-33.1 33.1-18.3 0-33.1-15.1-33.1-33.1 0-18.3 14.7-33.1 33.1-33.1 18.3 0 33.1 15.1 33.1 33.1z" style="fill:#fff"/>
</svg>